<svg width="37" height="46" viewBox="0 0 37 46" fill="none" xmlns="http://www.w3.org/2000/svg">
<path d="M23.0526 25.5091L33.4737 15.1591C33.8596 14.7758 34.3509 14.5841 34.9474 14.5841C35.5439 14.5841 36.0351 14.7758 36.421 15.1591C36.807 15.5424 37 16.0303 37 16.6227C37 17.2152 36.807 17.703 36.421 18.0864L24.5263 29.9C24.1053 30.3182 23.614 30.5273 23.0526 30.5273C22.4912 30.5273 22 30.3182 21.5789 29.9L15.5789 23.9409C15.193 23.5576 15 23.0697 15 22.4773C15 21.8848 15.193 21.397 15.5789 21.0136C15.9649 20.6303 16.4561 20.4386 17.0526 20.4386C17.6491 20.4386 18.1404 20.6303 18.5263 21.0136L23.0526 25.5091ZM4.21053 46C3.05263 46 2.06175 45.5909 1.23789 44.7726C0.414035 43.9544 0.00140351 42.9696 0 41.8182V4.18182C0 3.03182 0.412631 2.0477 1.23789 1.22945C2.06316 0.411212 3.05403 0.00139394 4.21053 0H25.2632C26.4211 0 27.4126 0.409818 28.2379 1.22945C29.0632 2.04909 29.4751 3.03321 29.4737 4.18182V10.4545C29.4737 11.047 29.2716 11.5439 28.8674 11.9454C28.4632 12.3468 27.9635 12.5468 27.3684 12.5455C26.7733 12.5441 26.2737 12.3433 25.8695 11.9433C25.4653 11.5432 25.2632 11.047 25.2632 10.4545H4.21053V35.5455H25.2632C25.2632 34.953 25.4653 34.4568 25.8695 34.0567C26.2737 33.6567 26.7733 33.4559 27.3684 33.4545C27.9635 33.4532 28.4639 33.6539 28.8695 34.0567C29.2751 34.4596 29.4765 34.9558 29.4737 35.5455V41.8182C29.4737 42.9682 29.0618 43.953 28.2379 44.7726C27.414 45.5923 26.4225 46.0014 25.2632 46H4.21053Z" fill="#FBDE7E"/>
</svg>
