<svg width="46" height="46" viewBox="0 0 46 46" fill="none" xmlns="http://www.w3.org/2000/svg">
<path fill-rule="evenodd" clip-rule="evenodd" d="M9.98438 0.717125C18.635 -0.239042 27.3649 -0.239042 36.0155 0.717125C40.8051 1.25305 44.6692 5.0185 45.2312 9.81673C46.2563 18.5758 46.2563 27.4242 45.2312 36.1833C44.6692 40.9815 40.8051 44.747 36.0155 45.2829C27.3649 46.239 18.635 46.239 9.98438 45.2829C5.19478 44.747 1.33066 40.9815 0.768654 36.1833C-0.256218 27.4251 -0.256218 18.5777 0.768654 9.81952C1.05292 7.48843 2.1174 5.32149 3.78958 3.66988C5.46176 2.01827 7.64363 0.978792 9.98159 0.719916M22.9999 9.06308C23.5561 9.06308 24.0895 9.28365 24.4827 9.67625C24.876 10.0688 25.0969 10.6013 25.0969 11.1566V20.9065H34.8635C35.4197 20.9065 35.953 21.1271 36.3463 21.5197C36.7396 21.9123 36.9605 22.4448 36.9605 23C36.9605 23.5552 36.7396 24.0877 36.3463 24.4803C35.953 24.8729 35.4197 25.0935 34.8635 25.0935H25.0969V34.8434C25.0969 35.3987 24.876 35.9312 24.4827 36.3238C24.0895 36.7164 23.5561 36.9369 22.9999 36.9369C22.4438 36.9369 21.9104 36.7164 21.5171 36.3238C21.1238 35.9312 20.9029 35.3987 20.9029 34.8434V25.0935H11.1363C10.5802 25.0935 10.0468 24.8729 9.65353 24.4803C9.26026 24.0877 9.03932 23.5552 9.03932 23C9.03932 22.4448 9.26026 21.9123 9.65353 21.5197C10.0468 21.1271 10.5802 20.9065 11.1363 20.9065H20.9029V11.1566C20.9029 10.6013 21.1238 10.0688 21.5171 9.67625C21.9104 9.28365 22.4438 9.06308 22.9999 9.06308Z" fill="#FBDE7E"/>
</svg>
